<?xml version="1.0" encoding="utf-8"?>
<!-- Generator: Adobe Illustrator 19.1.0, SVG Export Plug-In . SVG Version: 6.00 Build 0)  -->
<svg version="1.1" id="Layer_1" xmlns="http://www.w3.org/2000/svg" xmlns:xlink="http://www.w3.org/1999/xlink" x="0px" y="0px"
	 viewBox="0 0 250 250" enable-background="new 0 0 250 250" xml:space="preserve">
<g>
	<path fill="#919191" d="M125,8c31.3,0,60.6,12.2,82.7,34.3S242,93.7,242,125s-12.2,60.6-34.3,82.7S156.3,242,125,242
		s-60.6-12.2-82.7-34.3S8,156.3,8,125s12.2-60.6,34.3-82.7S93.7,8,125,8 M125,5C58.7,5,5,58.7,5,125s53.7,120,120,120
		s120-53.7,120-120S191.3,5,125,5L125,5z"/>
</g>
</svg>
