<?xml version="1.0" encoding="utf-8"?>
<!-- Generator: Adobe Illustrator 19.1.0, SVG Export Plug-In . SVG Version: 6.00 Build 0)  -->
<svg version="1.1" id="Layer_1" xmlns="http://www.w3.org/2000/svg" xmlns:xlink="http://www.w3.org/1999/xlink" x="0px" y="0px"
	 viewBox="0 0 250 250" enable-background="new 0 0 250 250" xml:space="preserve">
<polygon fill="#4F4F4F" points="187.5,173 149.5,184.8 123.3,189.2 123.5,39 162.5,74.8 "/>
<g id="SwcJy7.tif">
	<g>
		<path fill="#8C8C8C" d="M126.1,25.1c0.5,0.4,1.2,0.6,1.8,0.8c15.9,5.5,31.7,10.9,47.6,16.4c13.8,4.8,27.7,9.6,41.5,14.4
			c2.6,0.9,2.7,0.9,2.4,3.6c-0.7,5.9-1.5,11.8-2.2,17.8c-0.6,5.3-1.2,10.6-1.8,15.9c-0.7,5.9-1.5,11.8-2.2,17.8
			c-0.6,5.3-1.2,10.6-1.8,15.9c-0.7,5.9-1.5,11.8-2.2,17.8c-0.6,5.3-1.2,10.6-1.8,15.9c-0.7,5.9-1.6,11.8-2.1,17.8
			c-0.2,1.6-0.9,2.3-2.1,2.9c-14.6,7.9-29.2,15.9-43.9,23.8c-9.5,5.2-19,10.3-28.6,15.5c-2.2,1.2-4.5,2.4-6.7,3.6
			c-0.7,0.4-1.1,0.3-1.7,0c-7.8-4.5-15.7-8.9-23.5-13.3c-8.6-4.9-17.2-9.7-25.7-14.6c-8.8-5-17.7-10-26.5-15
			c-0.6-0.3-0.8-0.7-0.9-1.4c-0.5-4.7-1.1-9.3-1.7-14c-0.5-4.5-1.1-9-1.6-13.5c-0.6-4.6-1.1-9.2-1.7-13.8c-0.5-4.5-1.1-9-1.6-13.5
			c-0.6-4.6-1.1-9.2-1.7-13.8c-0.5-3.9-0.9-7.8-1.4-11.6c-0.5-4.4-1.1-8.8-1.6-13.1c-0.5-3.9-1-7.8-1.4-11.8
			c-0.6-4.6-1.1-9.3-1.7-13.9c-0.5-3.4-0.6-3.3,2.6-4.5c20.8-7.3,41.7-14.6,62.5-22c8.9-3.1,17.9-6.3,26.8-9.4
			c0.5-0.2,1-0.2,1.3-0.6C125.1,25.1,125.6,25.1,126.1,25.1z M123.5,214.4c0.2-0.1,0.4-0.1,0.6-0.2c16.4-9.1,32.9-18.2,49.3-27.3
			c6.8-3.8,13.6-7.5,20.4-11.3c0.5-0.3,0.9-0.5,1-1.2c0.5-4,1-8,1.5-12c0.7-5.7,1.4-11.4,2.1-17.2c0.8-6.4,1.6-12.8,2.4-19.1
			c0.8-6.3,1.6-12.7,2.4-19c0.9-7.1,1.8-14.1,2.7-21.1c0.8-6.6,1.6-13.2,2.5-19.8c0.1-1,0-1.5-1.1-1.8c-23.7-8-47.3-16.1-71-24.2
			c-4.4-1.5-8.7-3.1-13.2-4.4c-0.4-0.4-0.8,0-1.2,0.2c-19,6.8-38,13.5-57,20.3c-8.1,2.9-16.2,5.8-24.3,8.6c-0.7,0.2-1.2,0.4-1.1,1.4
			c1,8.3,2,16.6,3,24.9c1,8.8,2,17.5,3,26.3c1.1,9.5,2.2,19,3.3,28.6c1.1,9.5,2.2,19,3.3,28.4c0.1,0.8,0.4,1.3,1.1,1.7
			c2.7,1.4,5.3,2.9,8,4.4c10.5,5.8,21.1,11.7,31.6,17.5c9.7,5.4,19.4,10.7,29.1,16.1C122.5,214.3,122.9,214.9,123.5,214.4z"/>
		<path fill="#4F4F4F" d="M123.3,35.7c4.4,1.3,8.8,2.9,13.2,4.4c23.7,8.1,47.3,16.1,71,24.2c1.1,0.4,1.2,0.9,1.1,1.8
			c-0.9,6.6-1.7,13.2-2.5,19.8c-0.9,7.1-1.8,14.1-2.7,21.1c-0.8,6.3-1.6,12.7-2.4,19c-0.8,6.4-1.6,12.8-2.4,19.1
			c-0.7,5.7-1.4,11.4-2.1,17.2c-0.5,4-1,8-1.5,12c-0.1,0.7-0.5,0.9-1,1.2c-6.8,3.8-13.6,7.6-20.4,11.3
			c-16.4,9.1-32.9,18.2-49.3,27.3c-0.2,0.1-0.4,0.2-0.6,0.2c-0.5-0.5-0.3-1-0.3-1.6c0-23.5,0-47,0-70.5c8.8-0.1,17.5-0.2,26.3-0.3
			c0.9,0,1,0.5,1.3,1.1c4,9.2,7.9,18.4,11.9,27.5c0.3,0.6,0.5,1,1.3,1c6.1,0,12.1,0.2,18.2,0.2c1.7,0,1.7,0,1-1.5
			c-6.2-13.3-12.5-26.6-18.7-39.9c-12-25.5-23.9-51.1-35.9-76.6c-1.8-3.9-3.6-7.9-5.4-11.8C123.3,40,123.3,37.8,123.3,35.7z"/>
		<path fill="#C1C1C1" d="M123.3,35.7c0,2.1,0,4.2,0,6.3c-0.2,0.1-0.4,0.2-0.4,0.5c-0.8,1.8-1.7,3.7-2.5,5.5
			c-18.3,40.7-36.6,81.4-54.9,122.2c-0.6,1.3-0.6,1.3,0.8,1.3c6.4-0.1,12.7-0.3,19.1-0.4c1,0,1.4-0.3,1.7-1.2
			c3.5-9,7.1-17.9,10.7-26.9c0.3-0.9,0.8-1.2,1.7-1.2c7.8,0,15.7,0,23.5,0c0.1,0.1,0.2,0.2,0.2,0.3c0,23.5,0,47,0,70.5
			c0,0.5-0.2,1.1,0.3,1.6c-0.6,0.5-1,0-1.5-0.3c-9.7-5.4-19.4-10.7-29.1-16.1c-10.5-5.8-21.1-11.7-31.6-17.5c-2.7-1.5-5.3-2.9-8-4.4
			c-0.7-0.4-1-0.8-1.1-1.7c-1.1-9.5-2.2-19-3.3-28.4c-1.1-9.5-2.2-19-3.3-28.6c-1-8.8-2-17.5-3-26.3c-1-8.3-2-16.6-3-24.9
			c-0.1-0.9,0.4-1.1,1.1-1.4c8.1-2.9,16.2-5.7,24.3-8.6c19-6.8,38-13.5,57-20.3C122.5,35.8,122.8,35.4,123.3,35.7z"/>
		<path fill="#8C8C8C" d="M122.8,42.6c0-0.2,0.2-0.4,0.4-0.5c1.8,3.9,3.6,7.9,5.4,11.8c12,25.5,23.9,51.1,35.9,76.6
			c6.2,13.3,12.5,26.6,18.7,39.9c0.7,1.5,0.7,1.5-1,1.5c-6.1-0.1-12.1-0.2-18.2-0.2c-0.8,0-1.1-0.4-1.3-1c-4-9.2-7.9-18.4-11.9-27.5
			c-0.3-0.6-0.4-1.1-1.3-1.1c-8.8,0.1-17.5,0.2-26.3,0.3c-0.1-0.1-0.2-0.2-0.2-0.3c0-5.8,0-11.5,0-17.3c0.1-0.1,0.2-0.1,0.3-0.2
			c6.4,0,12.9,0,19.3,0c0.1-0.4-0.2-0.7-0.3-1c-2.5-5.3-5.1-10.7-7.7-16c-3.7-7.7-7.4-15.4-11.1-23.2c-0.1-0.2-0.2-0.3-0.2-0.5
			c0-11.6,0-23.1-0.2-34.7c0-1.8,0-3.5,0-5.3C123,43.4,123.2,42.9,122.8,42.6z"/>
		<path fill="#F1F0F0" d="M122.8,42.6c0.3,0.4,0.2,0.8,0.2,1.2c0,1.8,0,3.5,0,5.3c0.2,11.6,0.3,23.1,0.2,34.7
			c-0.1,0.2-0.3,0.5-0.4,0.7c-5.5,13-10.9,26-16.4,39c-0.4,1.1-0.1,1.2,0.8,1.2c5.3,0,10.5,0,15.8,0c0,5.8,0,11.5,0,17.3
			c-7.8,0-15.7,0-23.5,0c-1,0-1.4,0.3-1.7,1.2c-3.5,9-7.1,17.9-10.7,26.9c-0.3,0.9-0.8,1.2-1.7,1.2c-6.4,0.1-12.7,0.2-19.1,0.4
			c-1.4,0-1.4,0-0.8-1.3c18.3-40.7,36.6-81.4,54.9-122.2C121.2,46.2,122,44.4,122.8,42.6z"/>
		<path fill="#4F4F4F" d="M123.5,84.3c3.7,7.7,7.4,15.4,11.1,23.2c2.6,5.3,5.1,10.7,7.7,16c0.1,0.3,0.4,0.6,0.3,1
			c-6.4,0-12.9,0-19.3,0c0-13,0-26,0-39C123.3,85.1,123.1,84.6,123.5,84.3z"/>
		<path fill="#C1C1C1" d="M123.5,84.3c-0.3,0.4-0.2,0.8-0.2,1.2c0,13,0,26,0,39c-0.1,0.1-0.2,0.1-0.3,0.2c-5.3,0-10.5,0-15.8,0
			c-1,0-1.3-0.1-0.8-1.2c5.5-13,11-26,16.4-39c0.1-0.3,0.3-0.5,0.4-0.7C123.3,84,123.4,84.1,123.5,84.3z"/>
	</g>
</g>
</svg>
