<?xml version="1.0" encoding="utf-8"?>
<!-- Generator: Adobe Illustrator 19.1.0, SVG Export Plug-In . SVG Version: 6.00 Build 0)  -->
<svg version="1.1" id="Layer_1" xmlns="http://www.w3.org/2000/svg" xmlns:xlink="http://www.w3.org/1999/xlink" x="0px" y="0px"
	 viewBox="0 0 250 250" enable-background="new 0 0 250 250" xml:space="preserve">
<g>
	<g>
		<path id="path30_8_" inkscape:connector-curvature="0" fill="#4F4F4F" d="M125,250c-3.3,0-6.7-0.9-9.6-2.6l-30.6-18.1
			c-4.6-2.6-2.3-3.5-0.8-4c6.1-2.1,7.3-2.6,13.8-6.3c0.7-0.4,1.6-0.2,2.3,0.2l23.5,14c0.9,0.5,2.1,0.5,2.8,0l91.6-52.9
			c0.9-0.5,1.4-1.5,1.4-2.5V72.1c0-1-0.5-2-1.4-2.5l-91.6-52.8c-0.8-0.5-2-0.5-2.8,0L32,69.6c-0.9,0.5-1.4,1.5-1.4,2.5v105.7
			c0,1,0.6,2,1.4,2.4l25.1,14.5c13.6,6.8,22-1.2,22-9.3V81.1c0-1.5,1.2-2.6,2.7-2.6h11.6c1.4,0,2.6,1.2,2.6,2.6v104.4
			c0,18.2-9.9,28.6-27.1,28.6c-5.3,0-9.5,0-21.1-5.7l-24-13.8c-5.9-3.4-9.6-9.8-9.6-16.7V72.1c0-6.9,3.7-13.3,9.6-16.7l91.6-52.9
			c5.8-3.3,13.5-3.3,19.2,0l91.6,52.9c5.9,3.4,9.6,9.8,9.6,16.7v105.7c0,6.9-3.7,13.3-9.6,16.7l-91.6,52.9
			C131.7,249.1,128.4,250,125,250"/>
		<path id="path32_8_" inkscape:connector-curvature="0" fill="#4F4F4F" d="M153.3,177.2c-40.1,0-48.5-18.4-48.5-33.8
			c0-1.5,1.2-2.6,2.6-2.6h11.8c1.3,0,2.4,0.9,2.6,2.2c1.8,12.1,7.1,18.1,31.4,18.1c19.3,0,27.5-4.4,27.5-14.6
			c0-5.9-2.3-10.3-32.3-13.2c-25.1-2.5-40.6-8-40.6-28.1c0-18.5,15.6-29.5,41.7-29.5c29.4,0,43.9,10.2,45.7,32
			c0.1,0.8-0.2,1.5-0.7,2c- 0.5,0.5-1.2,0.8-1.9,0.8h-11.9c-1.2,0-2.3-0.9-2.6-2.1c-2.9-12.7-9.8-16.7-28.6-16.7
			c-21.1,0-23.5,7.3-23.5,12.8c0,6.7,2.9,8.6,31.3,12.4c28.2,3.7,41.5,9,41.5,28.8C198.9,165.7,182.3,177.2,153.3,177.2"/>
	</g>
</g>
</svg>
