<?xml version="1.0" encoding="utf-8"?>
<!-- Generator: Adobe Illustrator 19.1.0, SVG Export Plug-In . SVG Version: 6.00 Build 0)  -->
<svg version="1.1" id="Layer_1" xmlns="http://www.w3.org/2000/svg" xmlns:xlink="http://www.w3.org/1999/xlink" x="0px" y="0px"
	 viewBox="0 0 250 250" enable-background="new 0 0 250 250" xml:space="preserve">
<g>
	<path fill="#4F4F4F" d="M91.3,127.2h22.1l-11.1-42.9L91.3,127.2z M19.1,21.9v206.2h212.2V21.9H19.1z M125.5,174.2l-8.1-27.9h-30
		l-8.1,27.9H58.9l28.9-98.6V64.8h27.5l32.9,109.4H125.5z M180.1,174.2h-22.1V91h22.1V174.2z M169.1,81c-6.4,0-11.5-5.1-11.5-11.4
		c0-6.2,5.2-11.4,11.5-11.4c6.3,0,11.5,5.1,11.5,11.4S175.4,81,169.1,81z"/>
</g>
</svg>
